<?xml version="1.0" standalone="no"?>
<!DOCTYPE svg PUBLIC "-//W3C//DTD SVG 20010904//EN"
 "http://www.w3.org/TR/2001/REC-SVG-20010904/DTD/svg10.dtd">
<svg version="1.0" xmlns="http://www.w3.org/2000/svg"
 width="80.000000pt" height="80.000000pt" viewBox="0 0 80.000000 80.000000"
 preserveAspectRatio="xMidYMid meet">
<metadata>
Created by potrace 1.11, written by Peter Selinger 2001-2013
</metadata>
<g transform="translate(0.000000,80.000000) scale(0.100000,-0.100000)"
fill="#000000" stroke="none">
<path d="M230 606 l0 -106 -43 0 -43 0 1 -162 c1 -181 7 -206 60 -238 29 -18
50 -20 195 -20 146 0 166 2 195 20 52 32 62 73 61 245 l-1 150 -42 3 -43 3 0
105 0 104 -42 0 -43 0 0 -103 0 -102 -85 0 -85 0 0 100 0 100 -42 3 -43 3 0
-105z m340 -302 c0 -84 -4 -116 -14 -127 -21 -21 -303 -18 -316 3 -5 8 -10 65
-10 125 l0 110 170 1 170 0 0 -112z"/>
</g>
</svg>
